{
  "accessors": [
    {
      "bufferView": 2,
      "componentType": 5126,
      "count": 364,
      "max": [
        -4.910163879394531,
        0.0,
        6.76347541809082
      ],
      "min": [
        -10.607295989990234,
        -0.019999999552965164,
        0.9918657541275024
      ],
      "type": "VEC3"
    },
    {
      "bufferView": 2,
      "byteOffset": 4368,
      "componentType": 5126,
      "count": 364,
      "max": [
        1.0,
        1.0,
        1.0
      ],
      "min": [
        -0.009699540212750435,
        -1.0,
        -0.009699540212750435
      ],
      "type": "VEC3"
    },
    {
      "bufferView": 1,
      "componentType": 5126,
      "count": 364,
      "max": [
        0.9809519052505493,
        1.223905086517334
      ],
      "min": [
        0.019025690853595734,
        -0.3626950979232788
      ],
      "type": "VEC2"
    },
    {
      "bufferView": 0,
      "componentType": 5125,
      "count": 864,
      "type": "SCALAR"
    },
    {
      "bufferView": 2,
      "byteOffset": 8736,
      "componentType": 5126,
      "count": 920,
      "max": [
        -4.910163879394531,
        0.03255733475089073,
        6.76347541809082
      ],
      "min": [
        -10.855316162109375,
        -0.014980088919401169,
        0.7438434362411499
      ],
      "type": "VEC3"
    },
    {
      "bufferView": 2,
      "byteOffset": 19776,
      "componentType": 5126,
      "count": 920,
      "max": [
        1.0,
        1.0,
        1.0
      ],
      "min": [
        -1.0,
        -0.9999865293502808,
        -1.0
      ],
      "type": "VEC3"
    },
    {
      "bufferView": 3,
      "componentType": 5126,
      "count": 920,
      "max": [
        1.0,
        1.0,
        0.8005978465080261,
        1.0
      ],
      "min": [
        -1.0,
        -1.0,
        -1.0,
        -1.0
      ],
      "type": "VEC4"
    },
    {
      "bufferView": 1,
      "byteOffset": 2912,
      "componentType": 5126,
      "count": 920,
      "max": [
        1.7081722021102905,
        2.652008533477783
      ],
      "min": [
        -0.6427009105682373,
        -1.6937308311462402
      ],
      "type": "VEC2"
    },
    {
      "bufferView": 1,
      "byteOffset": 10272,
      "componentType": 5126,
      "count": 920,
      "max": [
        1.7081722021102905,
        2.652008533477783
      ],
      "min": [
        -0.6427009105682373,
        -1.6937308311462402
      ],
      "type": "VEC2"
    },
    {
      "bufferView": 0,
      "byteOffset": 3456,
      "componentType": 5125,
      "count": 1500,
      "type": "SCALAR"
    },
    {
      "bufferView": 2,
      "byteOffset": 30816,
      "componentType": 5126,
      "count": 56,
      "max": [
        -8.398035049438477,
        3.725290298461914e-09,
        12.820211410522461
      ],
      "min": [
        -10.606605529785156,
        -0.019999995827674866,
        7.194537162780762
      ],
      "type": "VEC3"
    },
    {
      "bufferView": 2,
      "byteOffset": 31488,
      "componentType": 5126,
      "count": 56,
      "max": [
        0.00939958542585373,
        1.0,
        1.0
      ],
      "min": [
        -0.00939958542585373,
        -1.0,
        -1.0
      ],
      "type": "VEC3"
    },
    {
      "bufferView": 1,
      "byteOffset": 17632,
      "componentType": 5126,
      "count": 56,
      "max": [
        0.9844192862510681,
        1.7852044105529785
      ],
      "min": [
        0.01551470160484314,
        -0.7582522630691528
      ],
      "type": "VEC2"
    },
    {
      "bufferView": 0,
      "byteOffset": 9456,
      "componentType": 5125,
      "count": 96,
      "type": "SCALAR"
    },
    {
      "bufferView": 2,
      "byteOffset": 32160,
      "componentType": 5126,
      "count": 96,
      "max": [
        -8.149805068969727,
        0.03255733102560043,
        12.820211410522461
      ],
      "min": [
        -10.854835510253906,
        -0.014767286367714405,
        7.194537162780762
      ],
      "type": "VEC3"
    },
    {
      "bufferView": 2,
      "byteOffset": 33312,
      "componentType": 5126,
      "count": 96,
      "max": [
        1.0,
        1.0,
        1.0
      ],
      "min": [
        -1.0,
        -0.9999843835830688,
        -1.0
      ],
      "type": "VEC3"
    },
    {
      "bufferView": 3,
      "byteOffset": 14720,
      "componentType": 5126,
      "count": 96,
      "max": [
        1.0,
        1.0,
        2.3774498110578704e-22,
        1.0
      ],
      "min": [
        -1.0,
        -1.0,
        -2.3774505683643394e-22,
        -1.0
      ],
      "type": "VEC4"
    },
    {
      "bufferView": 1,
      "byteOffset": 18080,
      "componentType": 5126,
      "count": 96,
      "max": [
        1.2695876359939575,
        2.1012368202209473
      ],
      "min": [
        0.06472696363925934,
        -1.0567898750305176
      ],
      "type": "VEC2"
    },
    {
      "bufferView": 1,
      "byteOffset": 18848,
      "componentType": 5126,
      "count": 96,
      "max": [
        1.2695876359939575,
        2.1012368202209473
      ],
      "min": [
        0.06472696363925934,
        -1.0567898750305176
      ],
      "type": "VEC2"
    },
    {
      "bufferView": 0,
      "byteOffset": 9840,
      "componentType": 5125,
      "count": 156,
      "type": "SCALAR"
    },
    {
      "bufferView": 2,
      "byteOffset": 34464,
      "componentType": 5126,
      "count": 210,
      "max": [
        -0.4564915895462036,
        5.587935447692871e-09,
        7.904761791229248
      ],
      "min": [
        -3.1612353324890137,
        -0.019999993965029716,
        5.45030403137207
      ],
      "type": "VEC3"
    },
    {
      "bufferView": 2,
      "byteOffset": 36984,
      "componentType": 5126,
      "count": 210,
      "max": [
        1.0,
        1.0,
        1.0
      ],
      "min": [
        -1.0,
        -1.0,
        -0.00939958542585373
      ],
      "type": "VEC3"
    },
    {
      "bufferView": 1,
      "byteOffset": 19616,
      "componentType": 5126,
      "count": 210,
      "max": [
        0.9931949377059937,
        1.0216392278671265
      ],
      "min": [
        0.002315972466021776,
        -0.030724048614501953
      ],
      "type": "VEC2"
    },
    {
      "bufferView": 0,
      "byteOffset": 10464,
      "componentType": 5125,
      "count": 492,
      "type": "SCALAR"
    },
    {
      "bufferView": 2,
      "byteOffset": 39504,
      "componentType": 5126,
      "count": 238,
      "max": [
        -0.4564915895462036,
        0.03255733102560043,
        7.907135963439941
      ],
      "min": [
        -3.1612353324890137,
        -0.0184385534375906,
        5.202075481414795
      ],
      "type": "VEC3"
    },
    {
      "bufferView": 2,
      "byteOffset": 42360,
      "componentType": 5126,
      "count": 238,
      "max": [
        1.0,
        1.0,
        0.9999997615814209
      ],
      "min": [
        -1.0,
        -0.99998939037323,
        -1.0
      ],
      "type": "VEC3"
    },
    {
      "bufferView": 3,
      "byteOffset": 16256,
      "componentType": 5126,
      "count": 238,
      "max": [
        1.0,
        1.0,
        1.0,
        1.0
      ],
      "min": [
        -1.0,
        -1.0,
        -1.0,
        -1.0
      ],
      "type": "VEC4"
    },
    {
      "bufferView": 1,
      "byteOffset": 21296,
      "componentType": 5126,
      "count": 238,
      "max": [
        1.269587516784668,
        1.2734962701797485
      ],
      "min": [
        0.06472712755203247,
        -0.229048490524292
      ],
      "type": "VEC2"
    },
    {
      "bufferView": 1,
      "byteOffset": 23200,
      "componentType": 5126,
      "count": 238,
      "max": [
        1.269587516784668,
        1.2734962701797485
      ],
      "min": [
        0.06472712755203247,
        -0.229048490524292
      ],
      "type": "VEC2"
    },
    {
      "bufferView": 0,
      "byteOffset": 12432,
      "componentType": 5125,
      "count": 480,
      "type": "SCALAR"
    },
    {
      "bufferView": 2,
      "byteOffset": 45216,
      "componentType": 5126,
      "count": 294,
      "max": [
        2.8656411170959473,
        5.587935447692871e-09,
        7.904761791229248
      ],
      "min": [
        0.1608964204788208,
        -0.019999993965029716,
        5.2044172286987305
      ],
      "type": "VEC3"
    },
    {
      "bufferView": 2,
      "byteOffset": 48744,
      "componentType": 5126,
      "count": 294,
      "max": [
        1.0,
        1.0,
        1.0
      ],
      "min": [
        -1.0,
        -1.0,
        -1.0
      ],
      "type": "VEC3"
    },
    {
      "bufferView": 1,
      "byteOffset": 25104,
      "componentType": 5126,
      "count": 294,
      "max": [
        0.9990902543067932,
        1.0216392278671265
      ],
      "min": [
        0.002315972466021776,
        -0.030724048614501953
      ],
      "type": "VEC2"
    },
    {
      "bufferView": 0,
      "byteOffset": 14352,
      "componentType": 5125,
      "count": 648,
      "type": "SCALAR"
    },
    {
      "bufferView": 2,
      "byteOffset": 52272,
      "componentType": 5126,
      "count": 240,
      "max": [
        2.8656411170959473,
        0.03255733102560043,
        7.907135963439941
      ],
      "min": [
        0.1608964204788208,
        -0.0184385534375906,
        5.202043056488037
      ],
      "type": "VEC3"
    },
    {
      "bufferView": 2,
      "byteOffset": 55152,
      "componentType": 5126,
      "count": 240,
      "max": [
        1.0,
        1.0,
        0.9999997615814209
      ],
      "min": [
        -1.0,
        -0.99998939037323,
        -0.9999997615814209
      ],
      "type": "VEC3"
    },
    {
      "bufferView": 3,
      "byteOffset": 20064,
      "componentType": 5126,
      "count": 240,
      "max": [
        1.0,
        1.0,
        1.0,
        1.0
      ],
      "min": [
        -1.0,
        -1.0,
        -1.0,
        -1.0
      ],
      "type": "VEC4"
    },
    {
      "bufferView": 1,
      "byteOffset": 27456,
      "componentType": 5126,
      "count": 240,
      "max": [
        0.3468560576438904,
        -0.08419370651245117
      ],
      "min": [
        0.06472712755203247,
        -0.229048490524292
      ],
      "type": "VEC2"
    },
    {
      "bufferView": 1,
      "byteOffset": 29376,
      "componentType": 5126,
      "count": 240,
      "max": [
        0.3468560576438904,
        -0.08419370651245117
      ],
      "min": [
        0.06472712755203247,
        -0.229048490524292
      ],
      "type": "VEC2"
    },
    {
      "bufferView": 0,
      "byteOffset": 16944,
      "componentType": 5125,
      "count": 384,
      "type": "SCALAR"
    },
    {
      "bufferView": 2,
      "byteOffset": 58032,
      "componentType": 5126,
      "count": 50,
      "max": [
        5.527414798736572,
        5.587935447692871e-09,
        7.635766983032227
      ],
      "min": [
        3.3702731132507324,
        -0.019999993965029716,
        5.427193641662598
      ],
      "type": "VEC3"
    },
    {
      "bufferView": 2,
      "byteOffset": 58632,
      "componentType": 5126,
      "count": 50,
      "max": [
        1.0,
        1.0,
        0.00939958542585373
      ],
      "min": [
        -1.0,
        -1.0,
        -0.00939958542585373
      ],
      "type": "VEC3"
    },
    {
      "bufferView": 1,
      "byteOffset": 31296,
      "componentType": 5126,
      "count": 50,
      "max": [
        0.9875600934028625,
        0.6824148297309875
      ],
      "min": [
        0.01662851870059967,
        -0.055450439453125
      ],
      "type": "VEC2"
    },
    {
      "bufferView": 0,
      "byteOffset": 18480,
      "componentType": 5125,
      "count": 96,
      "type": "SCALAR"
    },
    {
      "bufferView": 2,
      "byteOffset": 59232,
      "componentType": 5126,
      "count": 96,
      "max": [
        5.527414798736572,
        0.03255733102560043,
        7.883995532989502
      ],
      "min": [
        3.3702731132507324,
        -0.014767235144972801,
        5.178965091705322
      ],
      "type": "VEC3"
    },
    {
      "bufferView": 2,
      "byteOffset": 60384,
      "componentType": 5126,
      "count": 96,
      "max": [
        1.0,
        1.0,
        1.0
      ],
      "min": [
        -1.0,
        -0.9999843835830688,
        -1.0
      ],
      "type": "VEC3"
    },
    {
      "bufferView": 3,
      "byteOffset": 23904,
      "componentType": 5126,
      "count": 96,
      "max": [
        1.0,
        1.0,
        1.0,
        1.0
      ],
      "min": [
        -1.0,
        -1.0,
        -1.0,
        -1.0
      ],
      "type": "VEC4"
    },
    {
      "bufferView": 1,
      "byteOffset": 31696,
      "componentType": 5126,
      "count": 96,
      "max": [
        1.269587516784668,
        1.7331562042236328
      ],
      "min": [
        0.06472708284854889,
        -0.6887083053588867
      ],
      "type": "VEC2"
    },
    {
      "bufferView": 1,
      "byteOffset": 32464,
      "componentType": 5126,
      "count": 96,
      "max": [
        1.269587516784668,
        1.7331562042236328
      ],
      "min": [
        0.06472708284854889,
        -0.6887083053588867
      ],
      "type": "VEC2"
    },
    {
      "bufferView": 0,
      "byteOffset": 18864,
      "componentType": 5125,
      "count": 156,
      "type": "SCALAR"
    },
    {
      "bufferView": 2,
      "byteOffset": 61536,
      "componentType": 5126,
      "count": 208,
      "max": [
        2.1571459770202637,
        5.587935447692871e-09,
        4.2029571533203125
      ],
      "min": [
        -4.68794584274292,
        -0.019999993965029716,
        -0.012787342071533203
      ],
      "type": "VEC3"
    },
    {
      "bufferView": 2,
      "byteOffset": 64032,
      "componentType": 5126,
      "count": 208,
      "max": [
        1.0,
        1.0,
        0.009699544869363308
      ],
      "min": [
        -1.0,
        -1.0,
        -0.009699544869363308
      ],
      "type": "VEC3"
    },
    {
      "bufferView": 1,
      "byteOffset": 33232,
      "componentType": 5126,
      "count": 208,
      "max": [
        0.5417296290397644,
        1.7852044105529785
      ],
      "min": [
        0.01551469974219799,
        -0.7582522630691528
      ],
      "type": "VEC2"
    },
    {
      "bufferView": 0,
      "byteOffset": 19488,
      "componentType": 5125,
      "count": 360,
      "type": "SCALAR"
    },
    {
      "bufferView": 2,
      "byteOffset": 66528,
      "componentType": 5126,
      "count": 264,
      "max": [
        2.1571459770202637,
        0.03255733102560043,
        4.450874328613281
      ],
      "min": [
        -4.688623905181885,
        -0.015315639786422253,
        -0.26070427894592285
      ],
      "type": "VEC3"
    },
    {
      "bufferView": 2,
      "byteOffset": 69696,
      "componentType": 5126,
      "count": 264,
      "max": [
        1.0,
        1.0,
        1.0
      ],
      "min": [
        -0.9996413588523865,
        -0.999985933303833,
        -1.0
      ],
      "type": "VEC3"
    },
    {
      "bufferView": 3,
      "byteOffset": 25440,
      "componentType": 5126,
      "count": 264,
      "max": [
        1.0,
        1.0,
        1.0,
        1.0
      ],
      "min": [
        -1.0,
        -0.9999577403068542,
        -1.0,
        -1.0
      ],
      "type": "VEC4"
    },
    {
      "bufferView": 1,
      "byteOffset": 34896,
      "componentType": 5126,
      "count": 264,
      "max": [
        1.2695876359939575,
        2.1012368202209473
      ],
      "min": [
        0.9874593019485474,
        -1.0567898750305176
      ],
      "type": "VEC2"
    },
    {
      "bufferView": 1,
      "byteOffset": 37008,
      "componentType": 5126,
      "count": 264,
      "max": [
        1.2695876359939575,
        2.1012368202209473
      ],
      "min": [
        0.9874593019485474,
        -1.0567898750305176
      ],
      "type": "VEC2"
    },
    {
      "bufferView": 0,
      "byteOffset": 20928,
      "componentType": 5125,
      "count": 408,
      "type": "SCALAR"
    },
    {
      "bufferView": 2,
      "byteOffset": 72864,
      "componentType": 5126,
      "count": 60,
      "max": [
        13.312324523925781,
        5.587935447692871e-09,
        4.2026448249816895
      ],
      "min": [
        2.3826310634613037,
        -0.019999993965029716,
        -0.012475013732910156
      ],
      "type": "VEC3"
    },
    {
      "bufferView": 2,
      "byteOffset": 73584,
      "componentType": 5126,
      "count": 60,
      "max": [
        1.0,
        1.0,
        0.00939958542585373
      ],
      "min": [
        -1.0,
        -1.0,
        -0.00939958542585373
      ],
      "type": "VEC3"
    },
    {
      "bufferView": 1,
      "byteOffset": 39120,
      "componentType": 5126,
      "count": 60,
      "max": [
        0.9815784692764282,
        1.7880299091339111
      ],
      "min": [
        0.19761663675308228,
        -1.0257999897003174
      ],
      "type": "VEC2"
    },
    {
      "bufferView": 0,
      "byteOffset": 22560,
      "componentType": 5125,
      "count": 144,
      "type": "SCALAR"
    },
    {
      "bufferView": 2,
      "byteOffset": 74304,
      "componentType": 5126,
      "count": 98,
      "max": [
        13.312324523925781,
        0.03255733102560043,
        4.450873374938965
      ],
      "min": [
        2.3826310634613037,
        -0.014767270535230637,
        -0.26070380210876465
      ],
      "type": "VEC3"
    },
    {
      "bufferView": 2,
      "byteOffset": 75480,
      "componentType": 5126,
      "count": 98,
      "max": [
        1.0,
        1.0,
        1.0
      ],
      "min": [
        -1.0,
        -0.9999843835830688,
        -1.0
      ],
      "type": "VEC3"
    },
    {
      "bufferView": 3,
      "byteOffset": 29664,
      "componentType": 5126,
      "count": 98,
      "max": [
        1.0,
        1.0,
        1.0,
        1.0
      ],
      "min": [
        -1.0,
        -1.0,
        -1.0,
        -1.0
      ],
      "type": "VEC4"
    },
    {
      "bufferView": 1,
      "byteOffset": 39600,
      "componentType": 5126,
      "count": 98,
      "max": [
        0.7928410768508911,
        4.081872940063477
      ],
      "min": [
        0.6123080253601074,
        -3.520282745361328
      ],
      "type": "VEC2"
    },
    {
      "bufferView": 1,
      "byteOffset": 40384,
      "componentType": 5126,
      "count": 98,
      "max": [
        0.7928410768508911,
        4.081872940063477
      ],
      "min": [
        0.6123080253601074,
        -3.520282745361328
      ],
      "type": "VEC2"
    },
    {
      "bufferView": 0,
      "byteOffset": 23136,
      "componentType": 5125,
      "count": 156,
      "type": "SCALAR"
    },
    {
      "bufferView": 2,
      "byteOffset": 76656,
      "componentType": 5126,
      "count": 24,
      "max": [
        5.798563480377197,
        0.0329630970954895,
        10.806434631347656
      ],
      "min": [
        3.7985634803771973,
        0.01974216103553772,
        9.325819969177246
      ],
      "type": "VEC3"
    },
    {
      "bufferView": 2,
      "byteOffset": 76944,
      "componentType": 5126,
      "count": 24,
      "max": [
        1.0,
        1.0,
        1.0
      ],
      "min": [
        -1.0,
        -1.0,
        -1.0
      ],
      "type": "VEC3"
    },
    {
      "bufferView": 3,
      "byteOffset": 31232,
      "componentType": 5126,
      "count": 24,
      "max": [
        1.0,
        1.0,
        0.0,
        1.0
      ],
      "min": [
        -1.0,
        -1.0,
        0.0,
        -1.0
      ],
      "type": "VEC4"
    },
    {
      "bufferView": 1,
      "byteOffset": 41168,
      "componentType": 5126,
      "count": 24,
      "max": [
        1.0,
        1.0
      ],
      "min": [
        0.0,
        0.0
      ],
      "type": "VEC2"
    },
    {
      "bufferView": 1,
      "byteOffset": 41360,
      "componentType": 5126,
      "count": 24,
      "max": [
        1.0,
        1.0
      ],
      "min": [
        0.0,
        0.0
      ],
      "type": "VEC2"
    },
    {
      "bufferView": 0,
      "byteOffset": 23760,
      "componentType": 5125,
      "count": 36,
      "type": "SCALAR"
    },
    {
      "bufferView": 2,
      "byteOffset": 77232,
      "componentType": 5126,
      "count": 64,
      "max": [
        11.57323169708252,
        5.587935447692871e-09,
        7.640243053436279
      ],
      "min": [
        5.947558403015137,
        -0.019999993965029716,
        5.431671142578125
      ],
      "type": "VEC3"
    },
    {
      "bufferView": 2,
      "byteOffset": 78000,
      "componentType": 5126,
      "count": 64,
      "max": [
        1.0,
        1.0,
        0.00939958542585373
      ],
      "min": [
        -1.0,
        -1.0,
        -0.00939958542585373
      ],
      "type": "VEC3"
    },
    {
      "bufferView": 1,
      "byteOffset": 41552,
      "componentType": 5126,
      "count": 64,
      "max": [
        0.9844192862510681,
        1.7852044105529785
      ],
      "min": [
        0.01551470160484314,
        -0.7582522630691528
      ],
      "type": "VEC2"
    },
    {
      "bufferView": 0,
      "byteOffset": 23904,
      "componentType": 5125,
      "count": 96,
      "type": "SCALAR"
    },
    {
      "bufferView": 2,
      "byteOffset": 78768,
      "componentType": 5126,
      "count": 100,
      "max": [
        11.57323169708252,
        0.03255733102560043,
        7.888472080230713
      ],
      "min": [
        5.947558403015137,
        -0.014767330139875412,
        5.18344259262085
      ],
      "type": "VEC3"
    },
    {
      "bufferView": 2,
      "byteOffset": 79968,
      "componentType": 5126,
      "count": 100,
      "max": [
        1.0,
        1.0,
        1.0
      ],
      "min": [
        -1.0,
        -0.9999843835830688,
        -1.0
      ],
      "type": "VEC3"
    },
    {
      "bufferView": 3,
      "byteOffset": 31616,
      "componentType": 5126,
      "count": 100,
      "max": [
        1.0,
        1.0,
        1.0,
        1.0
      ],
      "min": [
        -1.0,
        -1.0,
        -1.0,
        -1.0
      ],
      "type": "VEC4"
    },
    {
      "bufferView": 1,
      "byteOffset": 42064,
      "componentType": 5126,
      "count": 100,
      "max": [
        1.2695876359939575,
        2.1012368202209473
      ],
      "min": [
        0.06472696363925934,
        -1.0567898750305176
      ],
      "type": "VEC2"
    },
    {
      "bufferView": 1,
      "byteOffset": 42864,
      "componentType": 5126,
      "count": 100,
      "max": [
        1.2695876359939575,
        2.1012368202209473
      ],
      "min": [
        0.06472696363925934,
        -1.0567898750305176
      ],
      "type": "VEC2"
    },
    {
      "bufferView": 0,
      "byteOffset": 24288,
      "componentType": 5125,
      "count": 156,
      "type": "SCALAR"
    },
    {
      "bufferView": 2,
      "byteOffset": 81168,
      "componentType": 5126,
      "count": 344,
      "max": [
        16.688831329345703,
        -0.01617317646741867,
        10.12838363647461
      ],
      "min": [
        12.009119033813477,
        -0.036173176020383835,
        5.433353424072266
      ],
      "type": "VEC3"
    },
    {
      "bufferView": 2,
      "byteOffset": 85296,
      "componentType": 5126,
      "count": 344,
      "max": [
        0.009799527935683727,
        1.0,
        1.0
      ],
      "min": [
        -1.0,
        -1.0,
        -0.009899512864649296
      ],
      "type": "VEC3"
    },
    {
      "bufferView": 1,
      "byteOffset": 43664,
      "componentType": 5126,
      "count": 344,
      "max": [
        0.9844192862510681,
        1.7852044105529785
      ],
      "min": [
        0.015514700673520565,
        -0.7582522630691528
      ],
      "type": "VEC2"
    },
    {
      "bufferView": 0,
      "byteOffset": 24912,
      "componentType": 5125,
      "count": 768,
      "type": "SCALAR"
    },
    {
      "bufferView": 2,
      "byteOffset": 89424,
      "componentType": 5126,
      "count": 832,
      "max": [
        16.93666648864746,
        0.016384143382310867,
        10.128856658935547
      ],
      "min": [
        12.008617401123047,
        -0.03134923800826073,
        5.185533046722412
      ],
      "type": "VEC3"
    },
    {
      "bufferView": 2,
      "byteOffset": 99408,
      "componentType": 5126,
      "count": 832,
      "max": [
        0.995362401008606,
        1.0,
        0.9998494386672974
      ],
      "min": [
        -0.9998387694358826,
        -0.9999865293502808,
        -0.994997501373291
      ],
      "type": "VEC3"
    },
    {
      "bufferView": 3,
      "byteOffset": 33216,
      "componentType": 5126,
      "count": 832,
      "max": [
        1.0,
        1.0,
        1.0,
        1.0
      ],
      "min": [
        -1.0,
        -1.0,
        -1.0,
        -1.0
      ],
      "type": "VEC4"
    },
    {
      "bufferView": 1,
      "byteOffset": 46416,
      "componentType": 5126,
      "count": 832,
      "max": [
        1.269587755203247,
        2.1012368202209473
      ],
      "min": [
        0.06472696363925934,
        -1.0567898750305176
      ],
      "type": "VEC2"
    },
    {
      "bufferView": 1,
      "byteOffset": 53072,
      "componentType": 5126,
      "count": 832,
      "max": [
        1.269587755203247,
        2.1012368202209473
      ],
      "min": [
        0.06472696363925934,
        -1.0567898750305176
      ],
      "type": "VEC2"
    },
    {
      "bufferView": 0,
      "byteOffset": 27984,
      "componentType": 5125,
      "count": 1332,
      "type": "SCALAR"
    },
    {
      "bufferView": 2,
      "byteOffset": 109392,
      "componentType": 5126,
      "count": 244,
      "max": [
        13.517431259155273,
        -0.01617317460477352,
        11.627472877502441
      ],
      "min": [
        10.620285034179688,
        -0.036173172295093536,
        8.731907844543457
      ],
      "type": "VEC3"
    },
    {
      "bufferView": 2,
      "byteOffset": 112320,
      "componentType": 5126,
      "count": 244,
      "max": [
        0.00999949686229229,
        1.0,
        1.0
      ],
      "min": [
        -1.0,
        -1.0,
        -0.00999949686229229
      ],
      "type": "VEC3"
    },
    {
      "bufferView": 1,
      "byteOffset": 59728,
      "componentType": 5126,
      "count": 244,
      "max": [
        0.9844191074371338,
        1.7852044105529785
      ],
      "min": [
        0.015514700673520565,
        0.5134760141372681
      ],
      "type": "VEC2"
    },
    {
      "bufferView": 0,
      "byteOffset": 33312,
      "componentType": 5125,
      "count": 528,
      "type": "SCALAR"
    },
    {
      "bufferView": 2,
      "byteOffset": 115248,
      "componentType": 5126,
      "count": 572,
      "max": [
        13.765326499938965,
        0.01638413965702057,
        11.62785816192627
      ],
      "min": [
        10.61990737915039,
        -0.03128363937139511,
        8.4840087890625
      ],
      "type": "VEC3"
    },
    {
      "bufferView": 2,
      "byteOffset": 122112,
      "componentType": 5126,
      "count": 572,
      "max": [
        0.9968904852867126,
        1.0,
        0.9998971223831177
      ],
      "min": [
        -0.9999001026153564,
        -0.9999873638153076,
        -0.996945321559906
      ],
      "type": "VEC3"
    },
    {
      "bufferView": 3,
      "byteOffset": 46528,
      "componentType": 5126,
      "count": 572,
      "max": [
        1.0,
        1.0,
        1.0,
        1.0
      ],
      "min": [
        -1.0,
        -1.0,
        -1.0,
        -1.0
      ],
      "type": "VEC4"
    },
    {
      "bufferView": 1,
      "byteOffset": 61680,
      "componentType": 5126,
      "count": 572,
      "max": [
        1.2695876359939575,
        2.1012368202209473
      ],
      "min": [
        0.06472708284854889,
        -1.0567889213562012
      ],
      "type": "VEC2"
    },
    {
      "bufferView": 1,
      "byteOffset": 66256,
      "componentType": 5126,
      "count": 572,
      "max": [
        1.2695876359939575,
        2.1012368202209473
      ],
      "min": [
        0.06472708284854889,
        -1.0567889213562012
      ],
      "type": "VEC2"
    },
    {
      "bufferView": 0,
      "byteOffset": 35424,
      "componentType": 5125,
      "count": 912,
      "type": "SCALAR"
    },
    {
      "bufferView": 2,
      "byteOffset": 128976,
      "componentType": 5126,
      "count": 244,
      "max": [
        -4.582278251647949,
        -0.016173172742128372,
        6.983584403991699
      ],
      "min": [
        -7.477841854095459,
        -0.036173172295093536,
        4.086438179016113
      ],
      "type": "VEC3"
    },
    {
      "bufferView": 2,
      "byteOffset": 131904,
      "componentType": 5126,
      "count": 244,
      "max": [
        1.0,
        1.0,
        1.0
      ],
      "min": [
        -0.00999949686229229,
        -1.0,
        -0.00999949686229229
      ],
      "type": "VEC3"
    },
    {
      "bufferView": 1,
      "byteOffset": 70832,
      "componentType": 5126,
      "count": 244,
      "max": [
        0.9844191074371338,
        1.7852044105529785
      ],
      "min": [
        0.015514700673520565,
        0.5134760141372681
      ],
      "type": "VEC2"
    },
    {
      "bufferView": 0,
      "byteOffset": 39072,
      "componentType": 5125,
      "count": 528,
      "type": "SCALAR"
    },
    {
      "bufferView": 2,
      "byteOffset": 134832,
      "componentType": 5126,
      "count": 572,
      "max": [
        -4.581892490386963,
        0.01638413779437542,
        6.983962059020996
      ],
      "min": [
        -7.725740909576416,
        -0.03128337115049362,
        3.8385424613952637
      ],
      "type": "VEC3"
    },
    {
      "bufferView": 2,
      "byteOffset": 141696,
      "componentType": 5126,
      "count": 572,
      "max": [
        0.9998972415924072,
        1.0,
        0.9998985528945923
      ],
      "min": [
        -0.996945321559906,
        -0.9999873638153076,
        -0.9968904852867126
      ],
      "type": "VEC3"
    },
    {
      "bufferView": 3,
      "byteOffset": 55680,
      "componentType": 5126,
      "count": 572,
      "max": [
        1.0,
        1.0,
        1.0,
        1.0
      ],
      "min": [
        -1.0,
        -1.0,
        -1.0,
        -1.0
      ],
      "type": "VEC4"
    },
    {
      "bufferView": 1,
      "byteOffset": 72784,
      "componentType": 5126,
      "count": 572,
      "max": [
        1.2695876359939575,
        2.1012368202209473
      ],
      "min": [
        0.06472708284854889,
        -1.0567889213562012
      ],
      "type": "VEC2"
    },
    {
      "bufferView": 1,
      "byteOffset": 77360,
      "componentType": 5126,
      "count": 572,
      "max": [
        1.2695876359939575,
        2.1012368202209473
      ],
      "min": [
        0.06472708284854889,
        -1.0567889213562012
      ],
      "type": "VEC2"
    },
    {
      "bufferView": 0,
      "byteOffset": 41184,
      "componentType": 5125,
      "count": 912,
      "type": "SCALAR"
    },
    {
      "bufferView": 2,
      "byteOffset": 148560,
      "componentType": 5126,
      "count": 120,
      "max": [
        10.19160270690918,
        0.0370309092104435,
        2.297748565673828
      ],
      "min": [
        6.000962734222412,
        -0.009076565504074097,
        1.8924211263656616
      ],
      "type": "VEC3"
    },
    {
      "bufferView": 2,
      "byteOffset": 150000,
      "componentType": 5126,
      "count": 120,
      "max": [
        1.0,
        1.0,
        1.0
      ],
      "min": [
        -1.0,
        -1.0,
        -1.0
      ],
      "type": "VEC3"
    },
    {
      "bufferView": 3,
      "byteOffset": 64832,
      "componentType": 5126,
      "count": 120,
      "max": [
        1.0,
        0.67861407995224,
        0.38269031047821045,
        1.0
      ],
      "min": [
        -0.3826903700828552,
        -0.6786144375801086,
        -1.0,
        -1.0
      ],
      "type": "VEC4"
    },
    {
      "bufferView": 1,
      "byteOffset": 81936,
      "componentType": 5126,
      "count": 120,
      "max": [
        2.4334986209869385,
        1.8454616069793701
      ],
      "min": [
        -1.4334990978240967,
        -0.7734616994857788
      ],
      "type": "VEC2"
    },
    {
      "bufferView": 1,
      "byteOffset": 82896,
      "componentType": 5126,
      "count": 120,
      "max": [
        2.4334986209869385,
        1.8454616069793701
      ],
      "min": [
        -1.4334990978240967,
        -0.7734616994857788
      ],
      "type": "VEC2"
    },
    {
      "bufferView": 0,
      "byteOffset": 44832,
      "componentType": 5125,
      "count": 204,
      "type": "SCALAR"
    },
    {
      "bufferView": 2,
      "byteOffset": 151440,
      "componentType": 5126,
      "count": 90,
      "max": [
        1.5567606687545776,
        0.0370309092104435,
        2.297748565673828
      ],
      "min": [
        -0.8959449529647827,
        -0.009076565504074097,
        1.8924211263656616
      ],
      "type": "VEC3"
    },
    {
      "bufferView": 2,
      "byteOffset": 152520,
      "componentType": 5126,
      "count": 90,
      "max": [
        1.0,
        1.0,
        0.9978854060173035
      ],
      "min": [
        -1.0,
        -0.0,
        -0.9978854060173035
      ],
      "type": "VEC3"
    },
    {
      "bufferView": 3,
      "byteOffset": 66752,
      "componentType": 5126,
      "count": 90,
      "max": [
        0.9980127215385437,
        0.0008023535483516753,
        1.0,
        1.0
      ],
      "min": [
        -0.5602952241897583,
        -1.0,
        -1.0,
        -1.0
      ],
      "type": "VEC4"
    },
    {
      "bufferView": 1,
      "byteOffset": 83856,
      "componentType": 5126,
      "count": 90,
      "max": [
        2.4334986209869385,
        1.7115375995635986
      ],
      "min": [
        -1.297033667564392,
        -1.0091261863708496
      ],
      "type": "VEC2"
    },
    {
      "bufferView": 1,
      "byteOffset": 84576,
      "componentType": 5126,
      "count": 90,
      "max": [
        2.4334986209869385,
        1.7115375995635986
      ],
      "min": [
        -1.297033667564392,
        -1.0091261863708496
      ],
      "type": "VEC2"
    },
    {
      "bufferView": 0,
      "byteOffset": 45648,
      "componentType": 5125,
      "count": 144,
      "type": "SCALAR"
    },
    {
      "bufferView": 2,
      "byteOffset": 153600,
      "componentType": 5126,
      "count": 686,
      "max": [
        -0.9599615335464478,
        2.617129325866699,
        9.893004417419434
      ],
      "min": [
        -2.6223483085632324,
        0.030551254749298096,
        9.732549667358398
      ],
      "type": "VEC3"
    },
    {
      "bufferView": 2,
      "byteOffset": 161832,
      "componentType": 5126,
      "count": 686,
      "max": [
        1.0,
        1.0,
        1.0
      ],
      "min": [
        -1.0,
        -1.0,
        -1.0
      ],
      "type": "VEC3"
    },
    {
      "bufferView": 1,
      "byteOffset": 85296,
      "componentType": 5126,
      "count": 686,
      "max": [
        0.8745148181915283,
        0.9993447065353394
      ],
      "min": [
        0.0006552705308422446,
        0.0006551742553710938
      ],
      "type": "VEC2"
    },
    {
      "bufferView": 0,
      "byteOffset": 46224,
      "componentType": 5125,
      "count": 2364,
      "type": "SCALAR"
    },
    {
      "bufferView": 2,
      "byteOffset": 170064,
      "componentType": 5126,
      "count": 650,
      "max": [
        3.0226798057556152,
        2.066734790802002,
        9.893004417419434
      ],
      "min": [
        2.345921516418457,
        0.030551254749298096,
        9.732549667358398
      ],
      "type": "VEC3"
    },
    {
      "bufferView": 2,
      "byteOffset": 177864,
      "componentType": 5126,
      "count": 650,
      "max": [
        1.0,
        1.0,
        1.0
      ],
      "min": [
        -1.0,
        -1.0,
        -1.0
      ],
      "type": "VEC3"
    },
    {
      "bufferView": 1,
      "byteOffset": 90784,
      "componentType": 5126,
      "count": 650,
      "max": [
        0.9087941646575928,
        0.9702149033546448
      ],
      "min": [
        0.019853563979268074,
        0.027148306369781494
      ],
      "type": "VEC2"
    },
    {
      "bufferView": 0,
      "byteOffset": 55680,
      "componentType": 5125,
      "count": 1992,
      "type": "SCALAR"
    },
    {
      "bufferView": 2,
      "byteOffset": 185664,
      "componentType": 5126,
      "count": 384,
      "max": [
        1.0333086252212524,
        2.6171274185180664,
        9.893004417419434
      ],
      "min": [
        0.1219487190246582,
        0.030551254749298096,
        9.732549667358398
      ],
      "type": "VEC3"
    },
    {
      "bufferView": 2,
      "byteOffset": 190272,
      "componentType": 5126,
      "count": 384,
      "max": [
        1.0,
        1.0,
        1.0
      ],
      "min": [
        -1.0,
        -1.0,
        -1.0
      ],
      "type": "VEC3"
    },
    {
      "bufferView": 1,
      "byteOffset": 95984,
      "componentType": 5126,
      "count": 384,
      "max": [
        0.8659822344779968,
        0.960892915725708
      ],
      "min": [
        0.05969548597931862,
        0.0025453567504882813
      ],
      "type": "VEC2"
    },
    {
      "bufferView": 0,
      "byteOffset": 63648,
      "componentType": 5125,
      "count": 1416,
      "type": "SCALAR"
    },
    {
      "bufferView": 2,
      "byteOffset": 194880,
      "componentType": 5126,
      "count": 64,
      "max": [
        9.412527084350586,
        5.587935447692871e-09,
        10.891716003417969
      ],
      "min": [
        6.599689960479736,
        -0.019999993965029716,
        8.683145523071289
      ],
      "type": "VEC3"
    },
    {
      "bufferView": 2,
      "byteOffset": 195648,
      "componentType": 5126,
      "count": 64,
      "max": [
        1.0,
        1.0,
        0.00939958542585373
      ],
      "min": [
        -1.0,
        -1.0,
        -0.00939958542585373
      ],
      "type": "VEC3"
    },
    {
      "bufferView": 1,
      "byteOffset": 99056,
      "componentType": 5126,
      "count": 64,
      "max": [
        0.9844191074371338,
        1.7852044105529785
      ],
      "min": [
        0.01551470160484314,
        0.5134760141372681
      ],
      "type": "VEC2"
    },
    {
      "bufferView": 0,
      "byteOffset": 69312,
      "componentType": 5125,
      "count": 96,
      "type": "SCALAR"
    },
    {
      "bufferView": 2,
      "byteOffset": 196416,
      "componentType": 5126,
      "count": 92,
      "max": [
        9.412527084350586,
        0.03255733102560043,
        11.139945030212402
      ],
      "min": [
        6.599689960479736,
        -0.014767330139875412,
        8.434916496276855
      ],
      "type": "VEC3"
    },
    {
      "bufferView": 2,
      "byteOffset": 197520,
      "componentType": 5126,
      "count": 92,
      "max": [
        1.0,
        1.0,
        1.0
      ],
      "min": [
        -1.0,
        -0.9999843835830688,
        -1.0
      ],
      "type": "VEC3"
    },
    {
      "bufferView": 3,
      "byteOffset": 68192,
      "componentType": 5126,
      "count": 92,
      "max": [
        1.0,
        1.0,
        1.0,
        1.0
      ],
      "min": [
        -1.0,
        -1.0,
        -1.0,
        -1.0
      ],
      "type": "VEC4"
    },
    {
      "bufferView": 1,
      "byteOffset": 99568,
      "componentType": 5126,
      "count": 92,
      "max": [
        1.2695876359939575,
        2.1012368202209473
      ],
      "min": [
        0.06472708284854889,
        -1.0567889213562012
      ],
      "type": "VEC2"
    },
    {
      "bufferView": 1,
      "byteOffset": 100304,
      "componentType": 5126,
      "count": 92,
      "max": [
        1.2695876359939575,
        2.1012368202209473
      ],
      "min": [
        0.06472708284854889,
        -1.0567889213562012
      ],
      "type": "VEC2"
    },
    {
      "bufferView": 0,
      "byteOffset": 69696,
      "componentType": 5125,
      "count": 156,
      "type": "SCALAR"
    },
    {
      "bufferView": 2,
      "byteOffset": 198624,
      "componentType": 5126,
      "count": 380,
      "max": [
        -3.266364097595215,
        0.2454984188079834,
        10.477309226989746
      ],
      "min": [
        -4.4077606201171875,
        0.01665595732629299,
        10.414371490478516
      ],
      "type": "VEC3"
    },
    {
      "bufferView": 2,
      "byteOffset": 203184,
      "componentType": 5126,
      "count": 380,
      "max": [
        1.0,
        1.0,
        1.0
      ],
      "min": [
        -1.0,
        -1.0,
        -1.0
      ],
      "type": "VEC3"
    },
    {
      "bufferView": 1,
      "byteOffset": 101040,
      "componentType": 5126,
      "count": 380,
      "max": [
        0.8375747203826904,
        3.8706459999084473
      ],
      "min": [
        0.15428069233894348,
        -2.8718528747558594
      ],
      "type": "VEC2"
    },
    {
      "bufferView": 0,
      "byteOffset": 70320,
      "componentType": 5125,
      "count": 648,
      "type": "SCALAR"
    },
    {
      "bufferView": 2,
      "byteOffset": 207744,
      "componentType": 5126,
      "count": 1900,
      "max": [
        2.99619722366333,
        0.2454984188079834,
        10.494898796081543
      ],
      "min": [
        -2.438408374786377,
        0.016655951738357544,
        10.431961059570313
      ],
      "type": "VEC3"
    },
    {
      "bufferView": 2,
      "byteOffset": 230544,
      "componentType": 5126,
      "count": 1900,
      "max": [
        1.0,
        1.0,
        1.0
      ],
      "min": [
        -1.0,
        -1.0,
        -1.0
      ],
      "type": "VEC3"
    },
    {
      "bufferView": 1,
      "byteOffset": 104080,
      "componentType": 5126,
      "count": 1900,
      "max": [
        0.8375747203826904,
        3.8706459999084473
      ],
      "min": [
        0.15428069233894348,
        -2.8718528747558594
      ],
      "type": "VEC2"
    },
    {
      "bufferView": 0,
      "byteOffset": 72912,
      "componentType": 5125,
      "count": 3240,
      "type": "SCALAR"
    },
    {
      "bufferView": 2,
      "byteOffset": 253344,
      "componentType": 5126,
      "count": 84,
      "max": [
        4.712268352508545,
        0.5241544246673584,
        8.825020790100098
      ],
      "min": [
        4.5731120109558105,
        0.3849979043006897,
        8.825020790100098
      ],
      "type": "VEC3"
    },
    {
      "bufferView": 2,
      "byteOffset": 254352,
      "componentType": 5126,
      "count": 84,
      "max": [
        0.0,
        9.999999747378752e-05,
        1.0
      ],
      "min": [
        0.0,
        -9.999999747378752e-05,
        1.0
      ],
      "type": "VEC3"
    },
    {
      "bufferView": 1,
      "byteOffset": 119280,
      "componentType": 5126,
      "count": 84,
      "max": [
        0.33873462677001953,
        0.7386105060577393
      ],
      "min": [
        0.06160926818847656,
        0.4614850878715515
      ],
      "type": "VEC2"
    },
    {
      "bufferView": 0,
      "byteOffset": 85872,
      "componentType": 5125,
      "count": 282,
      "type": "SCALAR"
    },
    {
      "bufferView": 2,
      "byteOffset": 255360,
      "componentType": 5126,
      "count": 415,
      "max": [
        4.712268352508545,
        0.5241544246673584,
        8.825020790100098
      ],
      "min": [
        4.5731120109558105,
        0.03224856033921242,
        8.801709175109863
      ],
      "type": "VEC3"
    },
    {
      "bufferView": 2,
      "byteOffset": 260340,
      "componentType": 5126,
      "count": 415,
      "max": [
        0.9951865673065186,
        1.0,
        0.9659289121627808
      ],
      "min": [
        -0.9951865673065186,
        -1.0,
        -1.0
      ],
      "type": "VEC3"
    },
    {
      "bufferView": 1,
      "byteOffset": 119952,
      "componentType": 5126,
      "count": 415,
      "max": [
        0.9653919339179993,
        0.9983709454536438
      ],
      "min": [
        0.0016290342900902033,
        0.0016291141510009766
      ],
      "type": "VEC2"
    },
    {
      "bufferView": 0,
      "byteOffset": 87000,
      "componentType": 5125,
      "count": 822,
      "type": "SCALAR"
    },
    {
      "bufferView": 2,
      "byteOffset": 265320,
      "componentType": 5126,
      "count": 1064,
      "max": [
        -3.153447389602661,
        1.0564754009246826,
        9.943710327148438
      ],
      "min": [
        -4.686232566833496,
        0.021819915622472763,
        8.968060493469238
      ],
      "type": "VEC3"
    },
    {
      "bufferView": 2,
      "byteOffset": 278088,
      "componentType": 5126,
      "count": 1064,
      "max": [
        1.0,
        1.0,
        1.0
      ],
      "min": [
        -1.0,
        -1.0,
        -1.0
      ],
      "type": "VEC3"
    },
    {
      "bufferView": 1,
      "byteOffset": 123272,
      "componentType": 5126,
      "count": 1064,
      "max": [
        0.875,
        1.0
      ],
      "min": [
        0.0,
        0.0
      ],
      "type": "VEC2"
    },
    {
      "bufferView": 0,
      "byteOffset": 90288,
      "componentType": 5125,
      "count": 2622,
      "type": "SCALAR"
    },
    {
      "bufferView": 2,
      "byteOffset": 290856,
      "componentType": 5126,
      "count": 252,
      "max": [
        -3.1813418865203857,
        0.9924959540367126,
        9.943710327148438
      ],
      "min": [
        -4.6583380699157715,
        0.2580954432487488,
        8.968060493469238
      ],
      "type": "VEC3"
    },
    {
      "bufferView": 2,
      "byteOffset": 293880,
      "componentType": 5126,
      "count": 252,
      "max": [
        1.0,
        1.0,
        1.0
      ],
      "min": [
        -1.0,
        -1.0,
        -1.0
      ],
      "type": "VEC3"
    },
    {
      "bufferView": 1,
      "byteOffset": 131784,
      "componentType": 5126,
      "count": 252,
      "max": [
        1.8788375854492188,
        7.081737995147705
      ],
      "min": [
        -1.1112289428710938,
        -5.921346187591553
      ],
      "type": "VEC2"
    },
    {
      "bufferView": 0,
      "byteOffset": 100776,
      "componentType": 5125,
      "count": 552,
      "type": "SCALAR"
    },
    {
      "bufferView": 2,
      "byteOffset": 296904,
      "componentType": 5126,
      "count": 51,
      "max": [
        -5.282999038696289,
        4.6566128730773926e-09,
        10.196771621704102
      ],
      "min": [
        -7.491569995880127,
        -0.019999992102384567,
        7.383934020996094
      ],
      "type": "VEC3"
    },
    {
      "bufferView": 2,
      "byteOffset": 297516,
      "componentType": 5126,
      "count": 51,
      "max": [
        0.00939958542585373,
        1.0,
        1.0
      ],
      "min": [
        -0.00939958542585373,
        -1.0,
        -1.0
      ],
      "type": "VEC3"
    },
    {
      "bufferView": 1,
      "byteOffset": 133800,
      "componentType": 5126,
      "count": 51,
      "max": [
        0.9844191074371338,
        1.7852044105529785
      ],
      "min": [
        0.01551470160484314,
        0.5134760141372681
      ],
      "type": "VEC2"
    },
    {
      "bufferView": 0,
      "byteOffset": 102984,
      "componentType": 5125,
      "count": 90,
      "type": "SCALAR"
    },
    {
      "bufferView": 2,
      "byteOffset": 298128,
      "componentType": 5126,
      "count": 98,
      "max": [
        -5.0347700119018555,
        0.03255733102560043,
        10.196771621704102
      ],
      "min": [
        -7.739799976348877,
        -0.019999992102384567,
        7.383934020996094
      ],
      "type": "VEC3"
    },
    {
      "bufferView": 2,
      "byteOffset": 299304,
      "componentType": 5126,
      "count": 98,
      "max": [
        1.0,
        1.0,
        1.0
      ],
      "min": [
        -1.0,
        -0.9999843835830688,
        -1.0
      ],
      "type": "VEC3"
    },
    {
      "bufferView": 3,
      "byteOffset": 69664,
      "componentType": 5126,
      "count": 98,
      "max": [
        1.0,
        1.0,
        3.490102244541049e-06,
        1.0
      ],
      "min": [
        -1.0,
        -1.0,
        -7.005145744187757e-05,
        -1.0
      ],
      "type": "VEC4"
    },
    {
      "bufferView": 1,
      "byteOffset": 134208,
      "componentType": 5126,
      "count": 98,
      "max": [
        1.2695876359939575,
        2.1012368202209473
      ],
      "min": [
        0.01551470160484314,
        -1.0567889213562012
      ],
      "type": "VEC2"
    },
    {
      "bufferView": 1,
      "byteOffset": 134992,
      "componentType": 5126,
      "count": 98,
      "max": [
        1.2695876359939575,
        2.1012368202209473
      ],
      "min": [
        0.01551470160484314,
        -1.0567889213562012
      ],
      "type": "VEC2"
    },
    {
      "bufferView": 0,
      "byteOffset": 103344,
      "componentType": 5125,
      "count": 162,
      "type": "SCALAR"
    },
    {
      "bufferView": 2,
      "byteOffset": 300480,
      "componentType": 5126,
      "count": 79,
      "max": [
        5.309828758239746,
        0.5241544246673584,
        8.825020790100098
      ],
      "min": [
        5.1706719398498535,
        0.3849979043006897,
        8.825020790100098
      ],
      "type": "VEC3"
    },
    {
      "bufferView": 2,
      "byteOffset": 301428,
      "componentType": 5126,
      "count": 79,
      "max": [
        0.0,
        9.999999747378752e-05,
        1.0
      ],
      "min": [
        0.0,
        -9.999999747378752e-05,
        1.0
      ],
      "type": "VEC3"
    },
    {
      "bufferView": 1,
      "byteOffset": 135776,
      "componentType": 5126,
      "count": 79,
      "max": [
        0.37441757321357727,
        0.37268102169036865
      ],
      "min": [
        0.02751374989748001,
        0.025777101516723633
      ],
      "type": "VEC2"
    },
    {
      "bufferView": 0,
      "byteOffset": 103992,
      "componentType": 5125,
      "count": 282,
      "type": "SCALAR"
    },
    {
      "bufferView": 2,
      "byteOffset": 302376,
      "componentType": 5126,
      "count": 412,
      "max": [
        5.309828758239746,
        0.5241544246673584,
        8.825020790100098
      ],
      "min": [
        5.1706719398498535,
        0.03224856033921242,
        8.801709175109863
      ],
      "type": "VEC3"
    },
    {
      "bufferView": 2,
      "byteOffset": 307320,
      "componentType": 5126,
      "count": 412,
      "max": [
        0.9951865673065186,
        1.0,
        0.9659039378166199
      ],
      "min": [
        -0.9951865673065186,
        -1.0,
        -1.0
      ],
      "type": "VEC3"
    },
    {
      "bufferView": 1,
      "byteOffset": 136408,
      "componentType": 5126,
      "count": 412,
      "max": [
        0.9653919339179993,
        0.9983709454536438
      ],
      "min": [
        0.0016290342900902033,
        0.0016291141510009766
      ],
      "type": "VEC2"
    },
    {
      "bufferView": 0,
      "byteOffset": 105120,
      "componentType": 5125,
      "count": 822,
      "type": "SCALAR"
    },
    {
      "bufferView": 2,
      "byteOffset": 312264,
      "componentType": 5126,
      "count": 79,
      "max": [
        4.210317611694336,
        0.5241544246673584,
        8.825020790100098
      ],
      "min": [
        4.071161270141602,
        0.3849979043006897,
        8.825020790100098
      ],
      "type": "VEC3"
    },
    {
      "bufferView": 2,
      "byteOffset": 313212,
      "componentType": 5126,
      "count": 79,
      "max": [
        0.0,
        9.999999747378752e-05,
        1.0
      ],
      "min": [
        0.0,
        -9.999999747378752e-05,
        1.0
      ],
      "type": "VEC3"
    },
    {
      "bufferView": 1,
      "byteOffset": 139704,
      "componentType": 5126,
      "count": 79,
      "max": [
        0.6955846548080444,
        0.9261598587036133
      ],
      "min": [
        0.4266939163208008,
        0.6572691202163696
      ],
      "type": "VEC2"
    },
    {
      "bufferView": 0,
      "byteOffset": 108408,
      "componentType": 5125,
      "count": 282,
      "type": "SCALAR"
    },
    {
      "bufferView": 2,
      "byteOffset": 314160,
      "componentType": 5126,
      "count": 415,
      "max": [
        4.210317611694336,
        0.5241544246673584,
        8.825020790100098
      ],
      "min": [
        4.071161270141602,
        0.03224856033921242,
        8.801709175109863
      ],
      "type": "VEC3"
    },
    {
      "bufferView": 2,
      "byteOffset": 319140,
      "componentType": 5126,
      "count": 415,
      "max": [
        0.9951865673065186,
        1.0,
        0.9659289121627808
      ],
      "min": [
        -0.9951865673065186,
        -1.0,
        -1.0
      ],
      "type": "VEC3"
    },
    {
      "bufferView": 1,
      "byteOffset": 140336,
      "componentType": 5126,
      "count": 415,
      "max": [
        0.9653919339179993,
        0.9983709454536438
      ],
      "min": [
        0.0016290342900902033,
        0.0016291141510009766
      ],
      "type": "VEC2"
    },
    {
      "bufferView": 0,
      "byteOffset": 109536,
      "componentType": 5125,
      "count": 822,
      "type": "SCALAR"
    }
  ],
  "asset": {
    "extras": {
      "author": "Salah3D (https://sketchfab.com/abbasyounis214)",
      "license": "CC-BY-4.0 (http://creativecommons.org/licenses/by/4.0/)",
      "source": "https://sketchfab.com/3d-models/modular-city-road-pack-game-ready-d9df5cfa079f4da8a18ef1372c00d01c",
      "title": "Modular City Road Pack – Game Ready"
    },
    "generator": "Sketchfab-16.73.0",
    "version": "2.0"
  },
  "bufferViews": [
    {
      "buffer": 0,
      "byteLength": 112824,
      "name": "floatBufferViews",
      "target": 34963
    },
    {
      "buffer": 0,
      "byteLength": 143656,
      "byteOffset": 112824,
      "byteStride": 8,
      "name": "floatBufferViews",
      "target": 34962
    },
    {
      "buffer": 0,
      "byteLength": 324120,
      "byteOffset": 256480,
      "byteStride": 12,
      "name": "floatBufferViews",
      "target": 34962
    },
    {
      "buffer": 0,
      "byteLength": 71232,
      "byteOffset": 580600,
      "byteStride": 16,
      "name": "floatBufferViews",
      "target": 34962
    }
  ],
  "buffers": [
    {
      "byteLength": 651832,
      "uri": "scene.bin"
    }
  ],
  "images": [
    {
      "uri": "textures/road_tex_baseColor.jpeg"
    },
    {
      "uri": "textures/sidr_walk_baseColor.png"
    },
    {
      "uri": "textures/sidr_walk_normal.png"
    },
    {
      "uri": "textures/3_in_1_baseColor.jpeg"
    },
    {
      "uri": "textures/crossing_baseColor.jpeg"
    },
    {
      "uri": "textures/pole_baseColor.png"
    },
    {
      "uri": "textures/raling_baseColor.jpeg"
    },
    {
      "uri": "textures/sing_baseColor.jpeg"
    },
    {
      "uri": "textures/wood_baseColor.jpeg"
    }
  ],
  "materials": [
    {
      "doubleSided": true,
      "name": "road_tex",
      "pbrMetallicRoughness": {
        "baseColorTexture": {
          "index": 0
        },
        "metallicFactor": 0.0,
        "roughnessFactor": 0.5
      }
    },
    {
      "doubleSided": true,
      "name": "sidr_walk",
      "normalTexture": {
        "index": 2
      },
      "pbrMetallicRoughness": {
        "baseColorTexture": {
          "index": 1
        },
        "metallicFactor": 0.0,
        "roughnessFactor": 0.5
      }
    },
    {
      "doubleSided": true,
      "name": "3_in_1",
      "pbrMetallicRoughness": {
        "baseColorTexture": {
          "index": 3
        },
        "metallicFactor": 0.0,
        "roughnessFactor": 0.5
      }
    },
    {
      "doubleSided": true,
      "name": "crossing",
      "pbrMetallicRoughness": {
        "baseColorTexture": {
          "index": 4
        },
        "metallicFactor": 0.0,
        "roughnessFactor": 0.5
      }
    },
    {
      "doubleSided": true,
      "name": "pole",
      "pbrMetallicRoughness": {
        "baseColorTexture": {
          "index": 5
        },
        "roughnessFactor": 0.377273
      }
    },
    {
      "doubleSided": true,
      "name": "raling",
      "pbrMetallicRoughness": {
        "baseColorTexture": {
          "index": 6
        },
        "roughnessFactor": 0.5
      }
    },
    {
      "doubleSided": true,
      "name": "sing",
      "pbrMetallicRoughness": {
        "baseColorTexture": {
          "index": 7
        },
        "metallicFactor": 0.0,
        "roughnessFactor": 0.5
      }
    },
    {
      "doubleSided": true,
      "name": "black_metail",
      "pbrMetallicRoughness": {
        "baseColorFactor": [
          0.0844004,
          0.0844004,
          0.0844004,
          1.0
        ],
        "roughnessFactor": 0.409091
      }
    },
    {
      "doubleSided": true,
      "name": "wood",
      "pbrMetallicRoughness": {
        "baseColorTexture": {
          "index": 8
        },
        "metallicFactor": 0.0,
        "roughnessFactor": 0.5
      }
    }
  ],
  "meshes": [
    {
      "name": "Object_0",
      "primitives": [
        {
          "attributes": {
            "NORMAL": 1,
            "POSITION": 0,
            "TEXCOORD_0": 2
          },
          "indices": 3,
          "material": 0,
          "mode": 4
        }
      ]
    },
    {
      "name": "Object_1",
      "primitives": [
        {
          "attributes": {
            "NORMAL": 5,
            "POSITION": 4,
            "TANGENT": 6,
            "TEXCOORD_0": 7,
            "TEXCOORD_1": 8
          },
          "indices": 9,
          "material": 1,
          "mode": 4
        }
      ]
    },
    {
      "name": "Object_2",
      "primitives": [
        {
          "attributes": {
            "NORMAL": 11,
            "POSITION": 10,
            "TEXCOORD_0": 12
          },
          "indices": 13,
          "material": 0,
          "mode": 4
        }
      ]
    },
    {
      "name": "Object_3",
      "primitives": [
        {
          "attributes": {
            "NORMAL": 15,
            "POSITION": 14,
            "TANGENT": 16,
            "TEXCOORD_0": 17,
            "TEXCOORD_1": 18
          },
          "indices": 19,
          "material": 1,
          "mode": 4
        }
      ]
    },
    {
      "name": "Object_4",
      "primitives": [
        {
          "attributes": {
            "NORMAL": 21,
            "POSITION": 20,
            "TEXCOORD_0": 22
          },
          "indices": 23,
          "material": 2,
          "mode": 4
        }
      ]
    },
    {
      "name": "Object_5",
      "primitives": [
        {
          "attributes": {
            "NORMAL": 25,
            "POSITION": 24,
            "TANGENT": 26,
            "TEXCOORD_0": 27,
            "TEXCOORD_1": 28
          },
          "indices": 29,
          "material": 1,
          "mode": 4
        }
      ]
    },
    {
      "name": "Object_6",
      "primitives": [
        {
          "attributes": {
            "NORMAL": 31,
            "POSITION": 30,
            "TEXCOORD_0": 32
          },
          "indices": 33,
          "material": 2,
          "mode": 4
        }
      ]
    },
    {
      "name": "Object_7",
      "primitives": [
        {
          "attributes": {
            "NORMAL": 35,
            "POSITION": 34,
            "TANGENT": 36,
            "TEXCOORD_0": 37,
            "TEXCOORD_1": 38
          },
          "indices": 39,
          "material": 1,
          "mode": 4
        }
      ]
    },
    {
      "name": "Object_8",
      "primitives": [
        {
          "attributes": {
            "NORMAL": 41,
            "POSITION": 40,
            "TEXCOORD_0": 42
          },
          "indices": 43,
          "material": 3,
          "mode": 4
        }
      ]
    },
    {
      "name": "Object_9",
      "primitives": [
        {
          "attributes": {
            "NORMAL": 45,
            "POSITION": 44,
            "TANGENT": 46,
            "TEXCOORD_0": 47,
            "TEXCOORD_1": 48
          },
          "indices": 49,
          "material": 1,
          "mode": 4
        }
      ]
    },
    {
      "name": "Object_10",
      "primitives": [
        {
          "attributes": {
            "NORMAL": 51,
            "POSITION": 50,
            "TEXCOORD_0": 52
          },
          "indices": 53,
          "material": 0,
          "mode": 4
        }
      ]
    },
    {
      "name": "Object_11",
      "primitives": [
        {
          "attributes": {
            "NORMAL": 55,
            "POSITION": 54,
            "TANGENT": 56,
            "TEXCOORD_0": 57,
            "TEXCOORD_1": 58
          },
          "indices": 59,
          "material": 1,
          "mode": 4
        }
      ]
    },
    {
      "name": "Object_12",
      "primitives": [
        {
          "attributes": {
            "NORMAL": 61,
            "POSITION": 60,
            "TEXCOORD_0": 62
          },
          "indices": 63,
          "material": 0,
          "mode": 4
        }
      ]
    },
    {
      "name": "Object_13",
      "primitives": [
        {
          "attributes": {
            "NORMAL": 65,
            "POSITION": 64,
            "TANGENT": 66,
            "TEXCOORD_0": 67,
            "TEXCOORD_1": 68
          },
          "indices": 69,
          "material": 1,
          "mode": 4
        }
      ]
    },
    {
      "name": "Object_14",
      "primitives": [
        {
          "attributes": {
            "NORMAL": 71,
            "POSITION": 70,
            "TANGENT": 72,
            "TEXCOORD_0": 73,
            "TEXCOORD_1": 74
          },
          "indices": 75,
          "material": 1,
          "mode": 4
        }
      ]
    },
    {
      "name": "Object_15",
      "primitives": [
        {
          "attributes": {
            "NORMAL": 77,
            "POSITION": 76,
            "TEXCOORD_0": 78
          },
          "indices": 79,
          "material": 0,
          "mode": 4
        }
      ]
    },
    {
      "name": "Object_16",
      "primitives": [
        {
          "attributes": {
            "NORMAL": 81,
            "POSITION": 80,
            "TANGENT": 82,
            "TEXCOORD_0": 83,
            "TEXCOORD_1": 84
          },
          "indices": 85,
          "material": 1,
          "mode": 4
        }
      ]
    },
    {
      "name": "Object_17",
      "primitives": [
        {
          "attributes": {
            "NORMAL": 87,
            "POSITION": 86,
            "TEXCOORD_0": 88
          },
          "indices": 89,
          "material": 0,
          "mode": 4
        }
      ]
    },
    {
      "name": "Object_18",
      "primitives": [
        {
          "attributes": {
            "NORMAL": 91,
            "POSITION": 90,
            "TANGENT": 92,
            "TEXCOORD_0": 93,
            "TEXCOORD_1": 94
          },
          "indices": 95,
          "material": 1,
          "mode": 4
        }
      ]
    },
    {
      "name": "Object_19",
      "primitives": [
        {
          "attributes": {
            "NORMAL": 97,
            "POSITION": 96,
            "TEXCOORD_0": 98
          },
          "indices": 99,
          "material": 0,
          "mode": 4
        }
      ]
    },
    {
      "name": "Object_20",
      "primitives": [
        {
          "attributes": {
            "NORMAL": 101,
            "POSITION": 100,
            "TANGENT": 102,
            "TEXCOORD_0": 103,
            "TEXCOORD_1": 104
          },
          "indices": 105,
          "material": 1,
          "mode": 4
        }
      ]
    },
    {
      "name": "Object_21",
      "primitives": [
        {
          "attributes": {
            "NORMAL": 107,
            "POSITION": 106,
            "TEXCOORD_0": 108
          },
          "indices": 109,
          "material": 0,
          "mode": 4
        }
      ]
    },
    {
      "name": "Object_22",
      "primitives": [
        {
          "attributes": {
            "NORMAL": 111,
            "POSITION": 110,
            "TANGENT": 112,
            "TEXCOORD_0": 113,
            "TEXCOORD_1": 114
          },
          "indices": 115,
          "material": 1,
          "mode": 4
        }
      ]
    },
    {
      "name": "Object_23",
      "primitives": [
        {
          "attributes": {
            "NORMAL": 117,
            "POSITION": 116,
            "TANGENT": 118,
            "TEXCOORD_0": 119,
            "TEXCOORD_1": 120
          },
          "indices": 121,
          "material": 1,
          "mode": 4
        }
      ]
    },
    {
      "name": "Object_24",
      "primitives": [
        {
          "attributes": {
            "NORMAL": 123,
            "POSITION": 122,
            "TANGENT": 124,
            "TEXCOORD_0": 125,
            "TEXCOORD_1": 126
          },
          "indices": 127,
          "material": 1,
          "mode": 4
        }
      ]
    },
    {
      "name": "Object_25",
      "primitives": [
        {
          "attributes": {
            "NORMAL": 129,
            "POSITION": 128,
            "TEXCOORD_0": 130
          },
          "indices": 131,
          "material": 4,
          "mode": 4
        }
      ]
    },
    {
      "name": "Object_26",
      "primitives": [
        {
          "attributes": {
            "NORMAL": 133,
            "POSITION": 132,
            "TEXCOORD_0": 134
          },
          "indices": 135,
          "material": 4,
          "mode": 4
        }
      ]
    },
    {
      "name": "Object_27",
      "primitives": [
        {
          "attributes": {
            "NORMAL": 137,
            "POSITION": 136,
            "TEXCOORD_0": 138
          },
          "indices": 139,
          "material": 4,
          "mode": 4
        }
      ]
    },
    {
      "name": "Object_28",
      "primitives": [
        {
          "attributes": {
            "NORMAL": 141,
            "POSITION": 140,
            "TEXCOORD_0": 142
          },
          "indices": 143,
          "material": 0,
          "mode": 4
        }
      ]
    },
    {
      "name": "Object_29",
      "primitives": [
        {
          "attributes": {
            "NORMAL": 145,
            "POSITION": 144,
            "TANGENT": 146,
            "TEXCOORD_0": 147,
            "TEXCOORD_1": 148
          },
          "indices": 149,
          "material": 1,
          "mode": 4
        }
      ]
    },
    {
      "name": "Object_30",
      "primitives": [
        {
          "attributes": {
            "NORMAL": 151,
            "POSITION": 150,
            "TEXCOORD_0": 152
          },
          "indices": 153,
          "material": 5,
          "mode": 4
        }
      ]
    },
    {
      "name": "Object_31",
      "primitives": [
        {
          "attributes": {
            "NORMAL": 155,
            "POSITION": 154,
            "TEXCOORD_0": 156
          },
          "indices": 157,
          "material": 5,
          "mode": 4
        }
      ]
    },
    {
      "name": "Object_32",
      "primitives": [
        {
          "attributes": {
            "NORMAL": 159,
            "POSITION": 158,
            "TEXCOORD_0": 160
          },
          "indices": 161,
          "material": 6,
          "mode": 4
        }
      ]
    },
    {
      "name": "Object_33",
      "primitives": [
        {
          "attributes": {
            "NORMAL": 163,
            "POSITION": 162,
            "TEXCOORD_0": 164
          },
          "indices": 165,
          "material": 5,
          "mode": 4
        }
      ]
    },
    {
      "name": "Object_34",
      "primitives": [
        {
          "attributes": {
            "NORMAL": 167,
            "POSITION": 166,
            "TEXCOORD_0": 168
          },
          "indices": 169,
          "material": 7,
          "mode": 4
        }
      ]
    },
    {
      "name": "Object_35",
      "primitives": [
        {
          "attributes": {
            "NORMAL": 171,
            "POSITION": 170,
            "TEXCOORD_0": 172
          },
          "indices": 173,
          "material": 8,
          "mode": 4
        }
      ]
    },
    {
      "name": "Object_36",
      "primitives": [
        {
          "attributes": {
            "NORMAL": 175,
            "POSITION": 174,
            "TEXCOORD_0": 176
          },
          "indices": 177,
          "material": 0,
          "mode": 4
        }
      ]
    },
    {
      "name": "Object_37",
      "primitives": [
        {
          "attributes": {
            "NORMAL": 179,
            "POSITION": 178,
            "TANGENT": 180,
            "TEXCOORD_0": 181,
            "TEXCOORD_1": 182
          },
          "indices": 183,
          "material": 1,
          "mode": 4
        }
      ]
    },
    {
      "name": "Object_38",
      "primitives": [
        {
          "attributes": {
            "NORMAL": 185,
            "POSITION": 184,
            "TEXCOORD_0": 186
          },
          "indices": 187,
          "material": 6,
          "mode": 4
        }
      ]
    },
    {
      "name": "Object_39",
      "primitives": [
        {
          "attributes": {
            "NORMAL": 189,
            "POSITION": 188,
            "TEXCOORD_0": 190
          },
          "indices": 191,
          "material": 5,
          "mode": 4
        }
      ]
    },
    {
      "name": "Object_40",
      "primitives": [
        {
          "attributes": {
            "NORMAL": 193,
            "POSITION": 192,
            "TEXCOORD_0": 194
          },
          "indices": 195,
          "material": 6,
          "mode": 4
        }
      ]
    },
    {
      "name": "Object_41",
      "primitives": [
        {
          "attributes": {
            "NORMAL": 197,
            "POSITION": 196,
            "TEXCOORD_0": 198
          },
          "indices": 199,
          "material": 5,
          "mode": 4
        }
      ]
    }
  ],
  "nodes": [
    {
      "children": [
        1
      ],
      "matrix": [
        1.0,
        0.0,
        0.0,
        0.0,
        0.0,
        2.220446049250313e-16,
        -1.0,
        0.0,
        0.0,
        1.0,
        2.220446049250313e-16,
        0.0,
        0.0,
        0.0,
        0.0,
        1.0
      ],
      "name": "Sketchfab_model"
    },
    {
      "children": [
        2
      ],
      "name": "root"
    },
    {
      "children": [
        3,
        6,
        9,
        12,
        15,
        18,
        21,
        24,
        26,
        29,
        32,
        35,
        38,
        40,
        42,
        44,
        46,
        48,
        51,
        53,
        55,
        58,
        61,
        64,
        67
      ],
      "matrix": [
        1.0,
        0.0,
        0.0,
        0.0,
        0.0,
        2.220446049250313e-16,
        1.0,
        0.0,
        0.0,
        -1.0,
        2.220446049250313e-16,
        0.0,
        0.0,
        0.0,
        0.0,
        1.0
      ],
      "name": "GLTF_SceneRootNode"
    },
    {
      "children": [
        4,
        5
      ],
      "name": "4in 2.001_0"
    },
    {
      "mesh": 0,
      "name": "Object_4"
    },
    {
      "mesh": 1,
      "name": "Object_5"
    },
    {
      "children": [
        7,
        8
      ],
      "name": "4in 2.002_1"
    },
    {
      "mesh": 2,
      "name": "Object_7"
    },
    {
      "mesh": 3,
      "name": "Object_8"
    },
    {
      "children": [
        10,
        11
      ],
      "name": "4in 2.003_2"
    },
    {
      "mesh": 4,
      "name": "Object_10"
    },
    {
      "mesh": 5,
      "name": "Object_11"
    },
    {
      "children": [
        13,
        14
      ],
      "name": "4in 2.004_3"
    },
    {
      "mesh": 6,
      "name": "Object_13"
    },
    {
      "mesh": 7,
      "name": "Object_14"
    },
    {
      "children": [
        16,
        17
      ],
      "name": "4in 2.005_4"
    },
    {
      "mesh": 8,
      "name": "Object_16"
    },
    {
      "mesh": 9,
      "name": "Object_17"
    },
    {
      "children": [
        19,
        20
      ],
      "name": "4in 2.006_5"
    },
    {
      "mesh": 10,
      "name": "Object_19"
    },
    {
      "mesh": 11,
      "name": "Object_20"
    },
    {
      "children": [
        22,
        23
      ],
      "name": "4in 2.007_6"
    },
    {
      "mesh": 12,
      "name": "Object_22"
    },
    {
      "mesh": 13,
      "name": "Object_23"
    },
    {
      "children": [
        25
      ],
      "name": "Plane_7"
    },
    {
      "mesh": 14,
      "name": "Object_25"
    },
    {
      "children": [
        27,
        28
      ],
      "name": "4in 2.008_8"
    },
    {
      "mesh": 15,
      "name": "Object_27"
    },
    {
      "mesh": 16,
      "name": "Object_28"
    },
    {
      "children": [
        30,
        31
      ],
      "name": "4in 2.009_9"
    },
    {
      "mesh": 17,
      "name": "Object_30"
    },
    {
      "mesh": 18,
      "name": "Object_31"
    },
    {
      "children": [
        33,
        34
      ],
      "name": "4in 2.010_10"
    },
    {
      "mesh": 19,
      "name": "Object_33"
    },
    {
      "mesh": 20,
      "name": "Object_34"
    },
    {
      "children": [
        36,
        37
      ],
      "name": "4in 2.011_11"
    },
    {
      "mesh": 21,
      "name": "Object_36"
    },
    {
      "mesh": 22,
      "name": "Object_37"
    },
    {
      "children": [
        39
      ],
      "name": "Plane.001_12"
    },
    {
      "mesh": 23,
      "name": "Object_39"
    },
    {
      "children": [
        41
      ],
      "name": "Plane.002_13"
    },
    {
      "mesh": 24,
      "name": "Object_41"
    },
    {
      "children": [
        43
      ],
      "name": "Cylinder_14"
    },
    {
      "mesh": 25,
      "name": "Object_43"
    },
    {
      "children": [
        45
      ],
      "name": "Cylinder.001_15"
    },
    {
      "mesh": 26,
      "name": "Object_45"
    },
    {
      "children": [
        47
      ],
      "name": "Cylinder.002_16"
    },
    {
      "mesh": 27,
      "name": "Object_47"
    },
    {
      "children": [
        49,
        50
      ],
      "name": "4in 2.012_17"
    },
    {
      "mesh": 28,
      "name": "Object_49"
    },
    {
      "mesh": 29,
      "name": "Object_50"
    },
    {
      "children": [
        52
      ],
      "name": "Plane.003_18"
    },
    {
      "mesh": 30,
      "name": "Object_52"
    },
    {
      "children": [
        54
      ],
      "name": "Plane.004_19"
    },
    {
      "mesh": 31,
      "name": "Object_54"
    },
    {
      "children": [
        56,
        57
      ],
      "name": "Cylinder.003_20"
    },
    {
      "mesh": 32,
      "name": "Object_56"
    },
    {
      "mesh": 33,
      "name": "Object_57"
    },
    {
      "children": [
        59,
        60
      ],
      "name": "Plane.005_21"
    },
    {
      "mesh": 34,
      "name": "Object_59"
    },
    {
      "mesh": 35,
      "name": "Object_60"
    },
    {
      "children": [
        62,
        63
      ],
      "name": "4in 2.013_22"
    },
    {
      "mesh": 36,
      "name": "Object_62"
    },
    {
      "mesh": 37,
      "name": "Object_63"
    },
    {
      "children": [
        65,
        66
      ],
      "name": "Cylinder.004_23"
    },
    {
      "mesh": 38,
      "name": "Object_65"
    },
    {
      "mesh": 39,
      "name": "Object_66"
    },
    {
      "children": [
        68,
        69
      ],
      "name": "Cylinder.005_24"
    },
    {
      "mesh": 40,
      "name": "Object_68"
    },
    {
      "mesh": 41,
      "name": "Object_69"
    }
  ],
  "samplers": [
    {
      "magFilter": 9729,
      "minFilter": 9987,
      "wrapS": 10497,
      "wrapT": 10497
    }
  ],
  "scene": 0,
  "scenes": [
    {
      "name": "Sketchfab_Scene",
      "nodes": [
        0
      ]
    }
  ],
  "textures": [
    {
      "sampler": 0,
      "source": 0
    },
    {
      "sampler": 0,
      "source": 1
    },
    {
      "sampler": 0,
      "source": 2
    },
    {
      "sampler": 0,
      "source": 3
    },
    {
      "sampler": 0,
      "source": 4
    },
    {
      "sampler": 0,
      "source": 5
    },
    {
      "sampler": 0,
      "source": 6
    },
    {
      "sampler": 0,
      "source": 7
    },
    {
      "sampler": 0,
      "source": 8
    }
  ]
}
